<svg class="svg-icon" style="width: 1em; height: 1em;vertical-align: middle;fill: currentColor;overflow: hidden;" viewBox="0 0 1024 1024" version="1.1" xmlns="http://www.w3.org/2000/svg"><path d="M451.4566 313.314869c-21.084201 0-38.201044 17.143449-38.201044 38.22765 0 21.084201 17.117866 38.226626 38.201044 38.226626 21.109784 0 38.22765-17.143449 38.22765-38.226626C489.68425 330.458317 472.566384 313.314869 451.4566 313.314869z"  /><path d="M571.564096 313.314869c-21.109784 0-38.226626 17.143449-38.226626 38.22765 0 21.084201 17.117866 38.226626 38.226626 38.226626 21.084201 0 38.202067-17.143449 38.202067-38.226626C609.766163 330.458317 592.648296 313.314869 571.564096 313.314869z"  /><path d="M922.818041 337.771887c-22.485107-53.15871-54.66911-100.895945-95.65764-141.885498-40.990576-40.989553-88.726787-73.173556-141.885498-95.65764-55.047734-23.283286-113.51024-35.08917-173.764556-35.08917S392.793526 76.945463 337.745792 100.228749c-53.15871 22.484084-100.895945 54.668087-141.885498 95.65764s-73.173556 88.726787-95.65764 141.885498C76.919369 392.81962 65.113485 451.282127 65.113485 511.535419c0 60.254316 11.805884 118.716822 35.088146 173.763532 22.484084 53.15871 54.668087 100.896968 95.65764 141.885498 40.989553 40.990576 88.726787 73.173556 141.885498 95.65764 55.04671 23.283286 113.509217 35.088146 173.763532 35.088146s118.716822-11.80486 173.764556-35.088146c53.15871-22.485107 100.895945-54.668087 141.885498-95.65764 40.989553-40.989553 73.173556-88.726787 95.65764-141.885498 23.283286-55.04671 35.088146-113.509217 35.088146-173.763532C957.906188 451.282127 946.101327 392.81962 922.818041 337.771887zM669.328723 885.145535c-49.975205 21.13639-103.07354 31.854499-157.819398 31.854499-54.746882 0-107.844194-10.718109-157.818375-31.854499-47.041386-19.897166-89.398076-48.187489-125.992529-84.074837 1.221828-99.657744 54.172807-186.922227 133.076878-236.640582 30.243815 52.146661 86.510306 87.354534 151.118789 87.354534 64.479547 0 120.643708-35.054377 150.915152-86.9974 78.596056 49.768497 131.294278 136.879484 132.513036 236.280378C758.727823 836.957023 716.370109 865.247346 669.328723 885.145535zM642.901841 477.073536c0 72.258721-58.749032 131.006729-131.006729 131.006729-72.233138 0-131.006729-58.748009-131.006729-131.006729l-0.38374 0L380.504642 324.266291l0.38374 0c0-72.258721 58.774615-131.006729 131.006729-131.006729 72.257697 0 131.006729 58.748009 131.006729 131.006729l-0.38374 0 0 152.807245L642.901841 477.073536zM885.118418 669.354817c-13.047154 30.848589-29.711695 59.678194-49.747008 86.198198-14.802124-98.373495-73.443709-182.354188-155.316391-231.654011 4.145413-14.892175 6.5246-30.550807 6.5246-46.825468l-0.38374 0L686.195879 324.266291l0.38374 0c0-96.515171-78.19492-174.710091-174.684508-174.710091-96.465029 0-174.658925 78.19492-174.658925 174.710091l-0.409322 0 0 152.807245 0.409322 0c0 16.120143 2.353604 31.626301 6.421246 46.415123-82.236979 49.231261-141.167137 133.401266-156.008146 232.064356-20.036335-26.521027-36.700877-55.350632-49.748031-86.199221-21.137413-49.974182-31.854499-103.072517-31.854499-157.818375 0-54.745858 10.717086-107.844194 31.854499-157.818375 20.421098-48.28061 49.659003-91.644233 86.902232-128.888486s80.607876-66.482157 128.887462-86.902232c49.974182-21.137413 103.072517-31.854499 157.818375-31.854499 54.745858 0 107.844194 10.718109 157.819398 31.854499 48.279586 20.421098 91.644233 49.659003 128.887462 86.903256 37.244252 37.243229 66.482157 80.606853 86.902232 128.887462 21.137413 49.974182 31.855522 103.072517 31.855522 157.818375C916.97394 566.282301 906.255831 619.380636 885.118418 669.354817z"  /></svg>